<?xml version="1.0" encoding="UTF-8"?>
<svg width="188.98" height="188.98" version="1.1" viewBox="0 0 188.98 188.98" xmlns="http://www.w3.org/2000/svg">
	<g transform="matrix(1.3333 0 0 -1.3333 0 188.98)">
		<g transform="matrix(1 0 0 -1 0 141.73)">
			<path d="m0 0h141.73v141.73h-141.73z" fill="#eee" fill-rule="evenodd"/>
			<g transform="matrix(5.4512 0 0 5.4512 13.628 13.628)">
				<path d="m0 0h7v7h-7zm9 0h1v1h1v-1h2v1h-1v1h1v1h-1v4h-3v-1h-1v2h-4v1h1v1h-1v1h1v2h-1v-1h3v1h-1v-2h4v-2h-1v3h-1v5h4v-1h3v-5h-3v-1h1v-6h-4v-1h-1v-1h1zm5 0h7v7h-7zm-13 1h5v5h-5zm14 0h5v5h-5zm-13 1h3v3h-3zm8 0h1v3h-1zm6 0h3v3h-3zm-6 4h1v2h-1zm-10 2h3v5h-3v-1h1v-1h-1zm12 0h3v2h-1v-1h3v1h2v-2h-1v1h3v6h-3v-3h-1v1h-1v-2h3v1h1v2h-3v1h-1v1h1v2h4v1h-2v2h2v-1h-1v-3h-2v2h-1v1h1v1h-2v-1h-1v1h-1v-2h1v-2h1v1h-2v-3h-2v-3h1v2h1v-1h-3v3h-2v-2h1v-2h1v-3h1zm-6 1h2v1h-2zm-6 5h7v7h-7zm1 1h5v5h-5zm1 1h3v3h-3zm6 2h1v3h-1zm2 0h1v2h-1zm2 0h1v1h-1zm0 2h1v1h-1z" fill-rule="evenodd"/>
			</g>
		</g>
	</g>
</svg>
