<?xml version="1.0" encoding="UTF-8"?>
<svg width="188.98" height="188.98" version="1.1" viewBox="0 0 188.98 188.98" xmlns="http://www.w3.org/2000/svg">
	<g transform="matrix(1.3333 0 0 -1.3333 0 188.98)">
		<g transform="matrix(1 0 0 -1 0 141.73)">
			<path d="m0 0h141.73v141.73h-141.73z" fill="#eee" fill-rule="evenodd"/>
			<g transform="matrix(5.4512 0 0 5.4512 13.628 13.628)">
				<path d="m0 0.5c0-0.275 0.225-0.5 0.5-0.5h6c0.275 0 0.5 0.225 0.5 0.5v6c0 0.275-0.225 0.5-0.5 0.5h-6c-0.275 0-0.5-0.225-0.5-0.5zm10 0c0-0.275 0.225-0.5 0.5-0.5h2c0.275 0 0.5 0.225 0.5 0.5v4c0 0.275-0.225 0.5-0.5 0.5h-1c-0.275 0-0.5 0.225-0.5 0.5v1c0 0.275-0.225 0.5-0.5 0.5h-2c-0.275 0-0.5-0.225-0.5-0.5v-1c0-0.275 0.225-0.5 0.5-0.5h1c0.275 0 0.5-0.225 0.5-0.5v-2c0-0.275-0.225-0.5-0.5-0.5h-1c-0.275 0-0.5-0.225-0.5-0.5s0.225-0.5 0.5-0.5h1c0.275 0 0.5-0.225 0.5-0.5zm4 0c0-0.275 0.225-0.5 0.5-0.5h6c0.275 0 0.5 0.225 0.5 0.5v6c0 0.275-0.225 0.5-0.5 0.5h-6c-0.275 0-0.5-0.225-0.5-0.5zm-13 1c0-0.275 0.225-0.5 0.5-0.5h4c0.275 0 0.5 0.225 0.5 0.5v4c0 0.275-0.225 0.5-0.5 0.5h-4c-0.275 0-0.5-0.225-0.5-0.5zm10 0c0-0.275 0.225-0.5 0.5-0.5s0.5 0.225 0.5 0.5-0.225 0.5-0.5 0.5-0.5-0.225-0.5-0.5zm4 0c0-0.275 0.225-0.5 0.5-0.5h4c0.275 0 0.5 0.225 0.5 0.5v4c0 0.275-0.225 0.5-0.5 0.5h-4c-0.275 0-0.5-0.225-0.5-0.5zm-13 1c0-0.275 0.225-0.5 0.5-0.5h2c0.275 0 0.5 0.225 0.5 0.5v2c0 0.275-0.225 0.5-0.5 0.5h-2c-0.275 0-0.5-0.225-0.5-0.5zm14 0c0-0.275 0.225-0.5 0.5-0.5h2c0.275 0 0.5 0.225 0.5 0.5v2c0 0.275-0.225 0.5-0.5 0.5h-2c-0.275 0-0.5-0.225-0.5-0.5zm-8 1c0-0.275 0.225-0.5 0.5-0.5h3c0.275 0 0.5 0.225 0.5 0.5v3c0 0.275 0.225 0.5 0.5 0.5s0.5-0.225 0.5-0.5-0.225-0.5-0.5-0.5h-2c-0.275 0-0.5 0.225-0.5 0.5v1c0 0.275-0.225 0.5-0.5 0.5h-3c-0.275 0-0.5 0.225-0.5 0.5s0.225 0.5 0.5 0.5 0.5 0.225 0.5 0.5v1c0 0.275-0.225 0.5-0.5 0.5s-0.5 0.225-0.5 0.5v1c0 0.275 0.225 0.5 0.5 0.5s0.5-0.225 0.5-0.5-0.225-0.5-0.5-0.5h-4c-0.275 0-0.5 0.225-0.5 0.5s0.225 0.5 0.5 0.5h1c0.275 0 0.5-0.225 0.5-0.5v-1c0-0.275 0.225-0.5 0.5-0.5s0.5-0.225 0.5-0.5v-2c0-0.275-0.225-0.5-0.5-0.5h-4c-0.275 0-0.5 0.225-0.5 0.5s0.225 0.5 0.5 0.5h1c0.275 0 0.5 0.225 0.5 0.5v1c0 0.275-0.225 0.5-0.5 0.5h-1c-0.275 0-0.5-0.225-0.5-0.5s0.225-0.5 0.5-0.5h7c0.275 0 0.5-0.225 0.5-0.5s0.225-0.5 0.5-0.5 0.5-0.225 0.5-0.5v-4c0-0.275-0.225-0.5-0.5-0.5s-0.5-0.225-0.5-0.5zm3 5c0-0.275 0.225-0.5 0.5-0.5s0.5 0.225 0.5 0.5 0.225 0.5 0.5 0.5h2c0.275 0 0.5-0.225 0.5-0.5s0.225-0.5 0.5-0.5 0.5 0.225 0.5 0.5 0.225 0.5 0.5 0.5h4c0.275 0 0.5 0.225 0.5 0.5s-0.225 0.5-0.5 0.5h-1c-0.275 0-0.5-0.225-0.5-0.5v-1c0-0.275 0.225-0.5 0.5-0.5s0.5 0.225 0.5 0.5v2c0 0.275-0.225 0.5-0.5 0.5s-0.5 0.225-0.5 0.5-0.225 0.5-0.5 0.5-0.5 0.225-0.5 0.5v1c0 0.275 0.225 0.5 0.5 0.5s0.5 0.225 0.5 0.5-0.225 0.5-0.5 0.5h-1c-0.275 0-0.5 0.225-0.5 0.5s0.225 0.5 0.5 0.5h3c0.275 0 0.5 0.225 0.5 0.5s-0.225 0.5-0.5 0.5-0.5-0.225-0.5-0.5v-3c0-0.275-0.225-0.5-0.5-0.5h-2c-0.275 0-0.5 0.225-0.5 0.5s-0.225 0.5-0.5 0.5h-1c-0.275 0-0.5-0.225-0.5-0.5s-0.225-0.5-0.5-0.5-0.5-0.225-0.5-0.5v-1c0-0.275 0.225-0.5 0.5-0.5h2c0.275 0 0.5-0.225 0.5-0.5v-2c0-0.275 0.225-0.5 0.5-0.5s0.5 0.225 0.5 0.5v1c0 0.275-0.225 0.5-0.5 0.5h-2c-0.275 0-0.5 0.225-0.5 0.5v1c0 0.275-0.225 0.5-0.5 0.5h-1c-0.275 0-0.5 0.225-0.5 0.5v2c0 0.275 0.225 0.5 0.5 0.5s0.5-0.225 0.5-0.5-0.225-0.5-0.5-0.5h-4c-0.275 0-0.5 0.225-0.5 0.5s-0.225 0.5-0.5 0.5-0.5-0.225-0.5-0.5v-3c0-0.275 0.225-0.5 0.5-0.5h3c0.275 0 0.5-0.225 0.5-0.5s-0.225-0.5-0.5-0.5-0.5 0.225-0.5 0.5v7c0 0.275 0.225 0.5 0.5 0.5s0.5 0.225 0.5 0.5-0.225 0.5-0.5 0.5h-1c-0.275 0-0.5-0.225-0.5-0.5v-3c0-0.275 0.225-0.5 0.5-0.5h1c0.275 0 0.5-0.225 0.5-0.5v-2c0-0.275-0.225-0.5-0.5-0.5h-2c-0.275 0-0.5 0.225-0.5 0.5s0.225 0.5 0.5 0.5 0.5-0.225 0.5-0.5v-3c0-0.275 0.225-0.5 0.5-0.5s0.5-0.225 0.5-0.5zm2 0c0-0.275 0.225-0.5 0.5-0.5s0.5 0.225 0.5 0.5v1c0 0.275-0.225 0.5-0.5 0.5s-0.5-0.225-0.5-0.5zm-13 4c0-0.275 0.225-0.5 0.5-0.5s0.5 0.225 0.5 0.5-0.225 0.5-0.5 0.5-0.5-0.225-0.5-0.5zm0 2c0-0.275 0.225-0.5 0.5-0.5h6c0.275 0 0.5 0.225 0.5 0.5v6c0 0.275-0.225 0.5-0.5 0.5h-6c-0.275 0-0.5-0.225-0.5-0.5zm1 1c0-0.275 0.225-0.5 0.5-0.5h4c0.275 0 0.5 0.225 0.5 0.5v4c0 0.275-0.225 0.5-0.5 0.5h-4c-0.275 0-0.5-0.225-0.5-0.5zm1 1c0-0.275 0.225-0.5 0.5-0.5h2c0.275 0 0.5 0.225 0.5 0.5v2c0 0.275-0.225 0.5-0.5 0.5h-2c-0.275 0-0.5-0.225-0.5-0.5zm6 0c0-0.275 0.225-0.5 0.5-0.5h3c0.275 0 0.5 0.225 0.5 0.5s0.225 0.5 0.5 0.5h2c0.275 0 0.5-0.225 0.5-0.5s0.225-0.5 0.5-0.5 0.5 0.225 0.5 0.5 0.225 0.5 0.5 0.5 0.5 0.225 0.5 0.5v2c0 0.275 0.225 0.5 0.5 0.5h2c0.275 0 0.5 0.225 0.5 0.5s-0.225 0.5-0.5 0.5-0.5-0.225-0.5-0.5v-3c0-0.275-0.225-0.5-0.5-0.5s-0.5 0.225-0.5 0.5-0.225 0.5-0.5 0.5h-2c-0.275 0-0.5 0.225-0.5 0.5s0.225 0.5 0.5 0.5 0.5 0.225 0.5 0.5-0.225 0.5-0.5 0.5h-2c-0.275 0-0.5 0.225-0.5 0.5s-0.225 0.5-0.5 0.5-0.5-0.225-0.5-0.5-0.225-0.5-0.5-0.5-0.5 0.225-0.5 0.5-0.225 0.5-0.5 0.5-0.5-0.225-0.5-0.5-0.225-0.5-0.5-0.5-0.5 0.225-0.5 0.5-0.225 0.5-0.5 0.5-0.5-0.225-0.5-0.5zm5 2c0-0.275 0.225-0.5 0.5-0.5s0.5 0.225 0.5 0.5-0.225 0.5-0.5 0.5-0.5-0.225-0.5-0.5z" fill-rule="evenodd"/>
			</g>
		</g>
	</g>
</svg>
