<?xml version="1.0" encoding="UTF-8"?>
<svg width="188.98" height="188.98" version="1.1" viewBox="0 0 188.98 188.98" xmlns="http://www.w3.org/2000/svg">
	<g transform="matrix(1.3333 0 0 -1.3333 0 188.98)">
		<g transform="matrix(1 0 0 -1 0 141.73)">
			<path d="m0 0h141.73v141.73h-141.73z" fill="#eee" fill-rule="evenodd"/>
			<g transform="matrix(5.4512 0 0 5.4512 13.628 13.628)">
				<path d="m0 3.5c0-1.925 1.575-3.5 3.5-3.5s3.5 1.575 3.5 3.5-1.575 3.5-3.5 3.5-3.5-1.575-3.5-3.5zm10-3c0-0.275 0.675-0.5 1.5-0.5s1.5 1.125 1.5 2.5-0.45 2.5-1 2.5-1 0.45-1 1-0.675 1-1.5 1-1.5-0.45-1.5-1 0.45-1 1-1 1-0.675 1-1.5-0.45-1.5-1-1.5-1-0.225-1-0.5 0.45-0.5 1-0.5 1-0.225 1-0.5zm4 3c0-1.925 1.575-3.5 3.5-3.5s3.5 1.575 3.5 3.5-1.575 3.5-3.5 3.5-3.5-1.575-3.5-3.5zm-13 0c0-1.375 1.125-2.5 2.5-2.5s2.5 1.125 2.5 2.5-1.125 2.5-2.5 2.5-2.5-1.125-2.5-2.5zm10-2c0-0.275 0.225-0.5 0.5-0.5s0.5 0.225 0.5 0.5-0.225 0.5-0.5 0.5-0.5-0.225-0.5-0.5zm4 2c0-1.375 1.125-2.5 2.5-2.5s2.5 1.125 2.5 2.5-1.125 2.5-2.5 2.5-2.5-1.125-2.5-2.5zm-13 0c0-0.825 0.675-1.5 1.5-1.5s1.5 0.675 1.5 1.5-0.675 1.5-1.5 1.5-1.5-0.675-1.5-1.5zm14 0c0-0.825 0.675-1.5 1.5-1.5s1.5 0.675 1.5 1.5-0.675 1.5-1.5 1.5-1.5-0.675-1.5-1.5zm-8 0c0-0.275 0.9-0.5 2-0.5s2 0.9 2 2 0.225 2 0.5 2 0.5-0.225 0.5-0.5-0.675-0.5-1.5-0.5-1.5 0.45-1.5 1-0.9 1-2 1-2 0.225-2 0.5 0.225 0.5 0.5 0.5 0.5 0.45 0.5 1-0.225 1-0.5 1-0.5 0.45-0.5 1 0.225 1 0.5 1 0.5-0.225 0.5-0.5-1.125-0.5-2.5-0.5-2.5 0.225-2.5 0.5 0.45 0.5 1 0.5 1-0.45 1-1 0.225-1 0.5-1 0.5-0.675 0.5-1.5-1.125-1.5-2.5-1.5-2.5 0.225-2.5 0.5 0.45 0.5 1 0.5 1 0.45 1 1-0.45 1-1 1-1-0.225-1-0.5 1.575-0.5 3.5-0.5h1c1.925 0 3.5-0.225 3.5-0.5s0.225-0.5 0.5-0.5 0.5-1.125 0.5-2.5-0.225-2.5-0.5-2.5-0.5-0.225-0.5-0.5zm3 5c0-0.275 0.225-0.5 0.5-0.5s0.5 0.225 0.5 0.5 0.675 0.5 1.5 0.5 1.5-0.225 1.5-0.5 0.225-0.5 0.5-0.5 0.5 0.225 0.5 0.5 1.125 0.5 2.5 0.5 2.5 0.225 2.5 0.5-0.45 0.5-1 0.5-1-0.45-1-1 0.225-1 0.5-1 0.5 0.675 0.5 1.5-0.225 1.5-0.5 1.5-0.5 0.225-0.5 0.5-0.225 0.5-0.5 0.5-0.5 0.45-0.5 1 0.225 1 0.5 1 0.5 0.225 0.5 0.5-0.45 0.5-1 0.5-1 0.225-1 0.5 0.9 0.5 2 0.5 2 0.225 2 0.5-0.225 0.5-0.5 0.5-0.5-0.9-0.5-2-0.675-2-1.5-2-1.5 0.225-1.5 0.5-0.45 0.5-1 0.5-1-0.225-1-0.5-0.225-0.5-0.5-0.5-0.5-0.45-0.5-1 0.675-1 1.5-1 1.5-0.675 1.5-1.5 0.225-1.5 0.5-1.5 0.5 0.45 0.5 1-0.675 1-1.5 1-1.5 0.45-1.5 1-0.45 1-1 1-1 0.675-1 1.5 0.225 1.5 0.5 1.5 0.5-0.225 0.5-0.5-1.125-0.5-2.5-0.5-2.5 0.225-2.5 0.5-0.225 0.5-0.5 0.5-0.5-0.9-0.5-2 0.9-2 2-2 2-0.225 2-0.5-0.225-0.5-0.5-0.5-0.5 1.575-0.5 3.5v1c0 1.925 0.225 3.5 0.5 3.5s0.5 0.225 0.5 0.5-0.45 0.5-1 0.5-1-0.9-1-2 0.45-2 1-2 1-0.675 1-1.5-0.675-1.5-1.5-1.5-1.5 0.225-1.5 0.5 0.225 0.5 0.5 0.5 0.5-0.9 0.5-2 0.225-2 0.5-2 0.5-0.225 0.5-0.5zm2 0.5c0-0.55 0.225-1 0.5-1s0.5 0.45 0.5 1-0.225 1-0.5 1-0.5-0.45-0.5-1zm-13 3.5c0-0.275 0.225-0.5 0.5-0.5s0.5 0.225 0.5 0.5-0.225 0.5-0.5 0.5-0.5-0.225-0.5-0.5zm0 5c0-1.925 1.575-3.5 3.5-3.5s3.5 1.575 3.5 3.5-1.575 3.5-3.5 3.5-3.5-1.575-3.5-3.5zm1 0c0-1.375 1.125-2.5 2.5-2.5s2.5 1.125 2.5 2.5-1.125 2.5-2.5 2.5-2.5-1.125-2.5-2.5zm1 0c0-0.825 0.675-1.5 1.5-1.5s1.5 0.675 1.5 1.5-0.675 1.5-1.5 1.5-1.5-0.675-1.5-1.5zm6 1c0-1.375 0.9-2.5 2-2.5s2 0.225 2 0.5 0.675 0.5 1.5 0.5 1.5-0.225 1.5-0.5 0.225-0.5 0.5-0.5 0.5 0.225 0.5 0.5 0.225 0.5 0.5 0.5 0.5 0.675 0.5 1.5 0.675 1.5 1.5 1.5 1.5 0.225 1.5 0.5-0.225 0.5-0.5 0.5-0.5-0.9-0.5-2-0.225-2-0.5-2-0.5 0.225-0.5 0.5-0.675 0.5-1.5 0.5-1.5 0.225-1.5 0.5 0.225 0.5 0.5 0.5 0.5 0.225 0.5 0.5-0.675 0.5-1.5 0.5-1.5 0.225-1.5 0.5-0.225 0.5-0.5 0.5-0.5-0.225-0.5-0.5-0.225-0.5-0.5-0.5-0.5 0.225-0.5 0.5-0.225 0.5-0.5 0.5-0.5-0.225-0.5-0.5-0.225-0.5-0.5-0.5-0.5 0.225-0.5 0.5-0.225 0.5-0.5 0.5-0.5-1.125-0.5-2.5zm5 0c0-0.275 0.225-0.5 0.5-0.5s0.5 0.225 0.5 0.5-0.225 0.5-0.5 0.5-0.5-0.225-0.5-0.5z" fill-rule="evenodd"/>
			</g>
		</g>
	</g>
</svg>
