<?xml version="1.0" encoding="utf-8" standalone="no"?>
<!DOCTYPE svg PUBLIC "-//W3C//DTD SVG 1.1//EN"
  "http://www.w3.org/Graphics/SVG/1.1/DTD/svg11.dtd">
<svg xmlns:xlink="http://www.w3.org/1999/xlink" width="460.8pt" height="345.6pt" viewBox="0 0 460.8 345.6" xmlns="http://www.w3.org/2000/svg" version="1.1">
 <metadata>
  <rdf:RDF xmlns:dc="http://purl.org/dc/elements/1.1/" xmlns:cc="http://creativecommons.org/ns#" xmlns:rdf="http://www.w3.org/1999/02/22-rdf-syntax-ns#">
   <cc:Work>
    <dc:type rdf:resource="http://purl.org/dc/dcmitype/StillImage"/>
    <dc:date>2022-11-20T16:59:21.987871</dc:date>
    <dc:format>image/svg+xml</dc:format>
    <dc:creator>
     <cc:Agent>
      <dc:title>Matplotlib v3.5.3, https://matplotlib.org/</dc:title>
     </cc:Agent>
    </dc:creator>
   </cc:Work>
  </rdf:RDF>
 </metadata>
 <defs>
  <style type="text/css">*{stroke-linejoin: round; stroke-linecap: butt}</style>
 </defs>
 <g id="figure_1">
  <g id="patch_1">
   <path d="M 0 345.6 
L 460.8 345.6 
L 460.8 0 
L 0 0 
z
" style="fill: #ffffff"/>
  </g>
  <g id="axes_1">
   <g id="patch_2">
    <path d="M 61.36 328.68 
L 450 328.68 
L 450 14.76 
L 61.36 14.76 
z
" style="fill: #ffffff"/>
   </g>
   <g id="matplotlib.axis_1"/>
   <g id="matplotlib.axis_2">
    <g id="ytick_1">
     <g id="line2d_1">
      <path d="M 61.36 328.68 
L 450 328.68 
" clip-path="url(#pefa63cb500)" style="fill: none; stroke-dasharray: 0.8,1.32; stroke-dashoffset: 0; stroke: #d3d3d3; stroke-width: 0.8"/>
     </g>
     <g id="line2d_2">
      <defs>
       <path id="m1cf7588d0c" d="M 0 0 
L -3.5 0 
" style="stroke: #000000; stroke-width: 0.8"/>
      </defs>
      <g>
       <use xlink:href="#m1cf7588d0c" x="61.36" y="328.68" style="stroke: #000000; stroke-width: 0.8"/>
      </g>
     </g>
     <g id="text_1">
      <!-- 0 ms -->
      <g transform="translate(29.869375 332.479219)scale(0.1 -0.1)">
       <defs>
        <path id="DejaVuSans-30" d="M 2034 4250 
Q 1547 4250 1301 3770 
Q 1056 3291 1056 2328 
Q 1056 1369 1301 889 
Q 1547 409 2034 409 
Q 2525 409 2770 889 
Q 3016 1369 3016 2328 
Q 3016 3291 2770 3770 
Q 2525 4250 2034 4250 
z
M 2034 4750 
Q 2819 4750 3233 4129 
Q 3647 3509 3647 2328 
Q 3647 1150 3233 529 
Q 2819 -91 2034 -91 
Q 1250 -91 836 529 
Q 422 1150 422 2328 
Q 422 3509 836 4129 
Q 1250 4750 2034 4750 
z
" transform="scale(0.015625)"/>
        <path id="DejaVuSans-20" transform="scale(0.015625)"/>
        <path id="DejaVuSans-6d" d="M 3328 2828 
Q 3544 3216 3844 3400 
Q 4144 3584 4550 3584 
Q 5097 3584 5394 3201 
Q 5691 2819 5691 2113 
L 5691 0 
L 5113 0 
L 5113 2094 
Q 5113 2597 4934 2840 
Q 4756 3084 4391 3084 
Q 3944 3084 3684 2787 
Q 3425 2491 3425 1978 
L 3425 0 
L 2847 0 
L 2847 2094 
Q 2847 2600 2669 2842 
Q 2491 3084 2119 3084 
Q 1678 3084 1418 2786 
Q 1159 2488 1159 1978 
L 1159 0 
L 581 0 
L 581 3500 
L 1159 3500 
L 1159 2956 
Q 1356 3278 1631 3431 
Q 1906 3584 2284 3584 
Q 2666 3584 2933 3390 
Q 3200 3197 3328 2828 
z
" transform="scale(0.015625)"/>
        <path id="DejaVuSans-73" d="M 2834 3397 
L 2834 2853 
Q 2591 2978 2328 3040 
Q 2066 3103 1784 3103 
Q 1356 3103 1142 2972 
Q 928 2841 928 2578 
Q 928 2378 1081 2264 
Q 1234 2150 1697 2047 
L 1894 2003 
Q 2506 1872 2764 1633 
Q 3022 1394 3022 966 
Q 3022 478 2636 193 
Q 2250 -91 1575 -91 
Q 1294 -91 989 -36 
Q 684 19 347 128 
L 347 722 
Q 666 556 975 473 
Q 1284 391 1588 391 
Q 1994 391 2212 530 
Q 2431 669 2431 922 
Q 2431 1156 2273 1281 
Q 2116 1406 1581 1522 
L 1381 1569 
Q 847 1681 609 1914 
Q 372 2147 372 2553 
Q 372 3047 722 3315 
Q 1072 3584 1716 3584 
Q 2034 3584 2315 3537 
Q 2597 3491 2834 3397 
z
" transform="scale(0.015625)"/>
       </defs>
       <use xlink:href="#DejaVuSans-30"/>
       <use xlink:href="#DejaVuSans-20" x="63.623047"/>
       <use xlink:href="#DejaVuSans-6d" x="95.410156"/>
       <use xlink:href="#DejaVuSans-73" x="192.822266"/>
      </g>
     </g>
    </g>
    <g id="ytick_2">
     <g id="line2d_3">
      <path d="M 61.36 265.896 
L 450 265.896 
" clip-path="url(#pefa63cb500)" style="fill: none; stroke-dasharray: 0.8,1.32; stroke-dashoffset: 0; stroke: #d3d3d3; stroke-width: 0.8"/>
     </g>
     <g id="line2d_4">
      <g>
       <use xlink:href="#m1cf7588d0c" x="61.36" y="265.896" style="stroke: #000000; stroke-width: 0.8"/>
      </g>
     </g>
     <g id="text_2">
      <!-- 200 ms -->
      <g transform="translate(17.144375 269.695219)scale(0.1 -0.1)">
       <defs>
        <path id="DejaVuSans-32" d="M 1228 531 
L 3431 531 
L 3431 0 
L 469 0 
L 469 531 
Q 828 903 1448 1529 
Q 2069 2156 2228 2338 
Q 2531 2678 2651 2914 
Q 2772 3150 2772 3378 
Q 2772 3750 2511 3984 
Q 2250 4219 1831 4219 
Q 1534 4219 1204 4116 
Q 875 4013 500 3803 
L 500 4441 
Q 881 4594 1212 4672 
Q 1544 4750 1819 4750 
Q 2544 4750 2975 4387 
Q 3406 4025 3406 3419 
Q 3406 3131 3298 2873 
Q 3191 2616 2906 2266 
Q 2828 2175 2409 1742 
Q 1991 1309 1228 531 
z
" transform="scale(0.015625)"/>
       </defs>
       <use xlink:href="#DejaVuSans-32"/>
       <use xlink:href="#DejaVuSans-30" x="63.623047"/>
       <use xlink:href="#DejaVuSans-30" x="127.246094"/>
       <use xlink:href="#DejaVuSans-20" x="190.869141"/>
       <use xlink:href="#DejaVuSans-6d" x="222.65625"/>
       <use xlink:href="#DejaVuSans-73" x="320.068359"/>
      </g>
     </g>
    </g>
    <g id="ytick_3">
     <g id="line2d_5">
      <path d="M 61.36 203.112 
L 450 203.112 
" clip-path="url(#pefa63cb500)" style="fill: none; stroke-dasharray: 0.8,1.32; stroke-dashoffset: 0; stroke: #d3d3d3; stroke-width: 0.8"/>
     </g>
     <g id="line2d_6">
      <g>
       <use xlink:href="#m1cf7588d0c" x="61.36" y="203.112" style="stroke: #000000; stroke-width: 0.8"/>
      </g>
     </g>
     <g id="text_3">
      <!-- 400 ms -->
      <g transform="translate(17.144375 206.911219)scale(0.1 -0.1)">
       <defs>
        <path id="DejaVuSans-34" d="M 2419 4116 
L 825 1625 
L 2419 1625 
L 2419 4116 
z
M 2253 4666 
L 3047 4666 
L 3047 1625 
L 3713 1625 
L 3713 1100 
L 3047 1100 
L 3047 0 
L 2419 0 
L 2419 1100 
L 313 1100 
L 313 1709 
L 2253 4666 
z
" transform="scale(0.015625)"/>
       </defs>
       <use xlink:href="#DejaVuSans-34"/>
       <use xlink:href="#DejaVuSans-30" x="63.623047"/>
       <use xlink:href="#DejaVuSans-30" x="127.246094"/>
       <use xlink:href="#DejaVuSans-20" x="190.869141"/>
       <use xlink:href="#DejaVuSans-6d" x="222.65625"/>
       <use xlink:href="#DejaVuSans-73" x="320.068359"/>
      </g>
     </g>
    </g>
    <g id="ytick_4">
     <g id="line2d_7">
      <path d="M 61.36 140.328 
L 450 140.328 
" clip-path="url(#pefa63cb500)" style="fill: none; stroke-dasharray: 0.8,1.32; stroke-dashoffset: 0; stroke: #d3d3d3; stroke-width: 0.8"/>
     </g>
     <g id="line2d_8">
      <g>
       <use xlink:href="#m1cf7588d0c" x="61.36" y="140.328" style="stroke: #000000; stroke-width: 0.8"/>
      </g>
     </g>
     <g id="text_4">
      <!-- 600 ms -->
      <g transform="translate(17.144375 144.127219)scale(0.1 -0.1)">
       <defs>
        <path id="DejaVuSans-36" d="M 2113 2584 
Q 1688 2584 1439 2293 
Q 1191 2003 1191 1497 
Q 1191 994 1439 701 
Q 1688 409 2113 409 
Q 2538 409 2786 701 
Q 3034 994 3034 1497 
Q 3034 2003 2786 2293 
Q 2538 2584 2113 2584 
z
M 3366 4563 
L 3366 3988 
Q 3128 4100 2886 4159 
Q 2644 4219 2406 4219 
Q 1781 4219 1451 3797 
Q 1122 3375 1075 2522 
Q 1259 2794 1537 2939 
Q 1816 3084 2150 3084 
Q 2853 3084 3261 2657 
Q 3669 2231 3669 1497 
Q 3669 778 3244 343 
Q 2819 -91 2113 -91 
Q 1303 -91 875 529 
Q 447 1150 447 2328 
Q 447 3434 972 4092 
Q 1497 4750 2381 4750 
Q 2619 4750 2861 4703 
Q 3103 4656 3366 4563 
z
" transform="scale(0.015625)"/>
       </defs>
       <use xlink:href="#DejaVuSans-36"/>
       <use xlink:href="#DejaVuSans-30" x="63.623047"/>
       <use xlink:href="#DejaVuSans-30" x="127.246094"/>
       <use xlink:href="#DejaVuSans-20" x="190.869141"/>
       <use xlink:href="#DejaVuSans-6d" x="222.65625"/>
       <use xlink:href="#DejaVuSans-73" x="320.068359"/>
      </g>
     </g>
    </g>
    <g id="ytick_5">
     <g id="line2d_9">
      <path d="M 61.36 77.544 
L 450 77.544 
" clip-path="url(#pefa63cb500)" style="fill: none; stroke-dasharray: 0.8,1.32; stroke-dashoffset: 0; stroke: #d3d3d3; stroke-width: 0.8"/>
     </g>
     <g id="line2d_10">
      <g>
       <use xlink:href="#m1cf7588d0c" x="61.36" y="77.544" style="stroke: #000000; stroke-width: 0.8"/>
      </g>
     </g>
     <g id="text_5">
      <!-- 800 ms -->
      <g transform="translate(17.144375 81.343219)scale(0.1 -0.1)">
       <defs>
        <path id="DejaVuSans-38" d="M 2034 2216 
Q 1584 2216 1326 1975 
Q 1069 1734 1069 1313 
Q 1069 891 1326 650 
Q 1584 409 2034 409 
Q 2484 409 2743 651 
Q 3003 894 3003 1313 
Q 3003 1734 2745 1975 
Q 2488 2216 2034 2216 
z
M 1403 2484 
Q 997 2584 770 2862 
Q 544 3141 544 3541 
Q 544 4100 942 4425 
Q 1341 4750 2034 4750 
Q 2731 4750 3128 4425 
Q 3525 4100 3525 3541 
Q 3525 3141 3298 2862 
Q 3072 2584 2669 2484 
Q 3125 2378 3379 2068 
Q 3634 1759 3634 1313 
Q 3634 634 3220 271 
Q 2806 -91 2034 -91 
Q 1263 -91 848 271 
Q 434 634 434 1313 
Q 434 1759 690 2068 
Q 947 2378 1403 2484 
z
M 1172 3481 
Q 1172 3119 1398 2916 
Q 1625 2713 2034 2713 
Q 2441 2713 2670 2916 
Q 2900 3119 2900 3481 
Q 2900 3844 2670 4047 
Q 2441 4250 2034 4250 
Q 1625 4250 1398 4047 
Q 1172 3844 1172 3481 
z
" transform="scale(0.015625)"/>
       </defs>
       <use xlink:href="#DejaVuSans-38"/>
       <use xlink:href="#DejaVuSans-30" x="63.623047"/>
       <use xlink:href="#DejaVuSans-30" x="127.246094"/>
       <use xlink:href="#DejaVuSans-20" x="190.869141"/>
       <use xlink:href="#DejaVuSans-6d" x="222.65625"/>
       <use xlink:href="#DejaVuSans-73" x="320.068359"/>
      </g>
     </g>
    </g>
    <g id="ytick_6">
     <g id="line2d_11">
      <path d="M 61.36 14.76 
L 450 14.76 
" clip-path="url(#pefa63cb500)" style="fill: none; stroke-dasharray: 0.8,1.32; stroke-dashoffset: 0; stroke: #d3d3d3; stroke-width: 0.8"/>
     </g>
     <g id="line2d_12">
      <g>
       <use xlink:href="#m1cf7588d0c" x="61.36" y="14.76" style="stroke: #000000; stroke-width: 0.8"/>
      </g>
     </g>
     <g id="text_6">
      <!-- 1000 ms -->
      <g transform="translate(10.781875 18.559219)scale(0.1 -0.1)">
       <defs>
        <path id="DejaVuSans-31" d="M 794 531 
L 1825 531 
L 1825 4091 
L 703 3866 
L 703 4441 
L 1819 4666 
L 2450 4666 
L 2450 531 
L 3481 531 
L 3481 0 
L 794 0 
L 794 531 
z
" transform="scale(0.015625)"/>
       </defs>
       <use xlink:href="#DejaVuSans-31"/>
       <use xlink:href="#DejaVuSans-30" x="63.623047"/>
       <use xlink:href="#DejaVuSans-30" x="127.246094"/>
       <use xlink:href="#DejaVuSans-30" x="190.869141"/>
       <use xlink:href="#DejaVuSans-20" x="254.492188"/>
       <use xlink:href="#DejaVuSans-6d" x="286.279297"/>
       <use xlink:href="#DejaVuSans-73" x="383.691406"/>
      </g>
     </g>
    </g>
   </g>
   <g id="line2d_13">
    <path d="M 61.36 304.50816 
L 62.655467 308.58912 
L 63.950933 304.82208 
L 65.2464 304.50816 
L 66.541867 308.58912 
L 67.837333 304.50816 
L 70.428267 304.50816 
L 71.723733 308.58912 
L 73.0192 304.82208 
L 74.314667 304.50816 
L 75.610133 304.82208 
L 76.9056 304.50816 
L 78.201067 304.50816 
L 79.496533 308.90304 
L 80.792 304.50816 
L 82.087467 308.58912 
L 83.382933 304.50816 
L 84.6784 308.58912 
L 85.973867 304.82208 
L 87.269333 308.58912 
L 88.5648 305.136 
L 89.860267 308.58912 
L 91.155733 308.58912 
L 92.4512 304.82208 
L 93.746667 306.07776 
L 95.042133 308.58912 
L 96.3376 324.59904 
L 97.633067 304.50816 
L 98.928533 304.50816 
L 100.224 307.01952 
L 101.519467 304.50816 
L 102.814933 308.90304 
L 104.1104 304.50816 
L 105.405867 304.50816 
L 106.701333 308.58912 
L 107.9968 308.90304 
L 109.292267 304.50816 
L 110.587733 304.82208 
L 111.8832 308.58912 
L 113.178667 308.58912 
L 114.474133 308.90304 
L 117.065067 308.90304 
L 118.360533 308.58912 
L 119.656 304.50816 
L 120.951467 304.50816 
L 122.246933 308.90304 
L 123.5424 304.50816 
L 128.724267 304.50816 
L 130.019733 308.58912 
L 131.3152 307.33344 
L 132.610667 308.90304 
L 133.906133 308.58912 
L 135.2016 308.90304 
L 136.497067 307.64736 
L 137.792533 304.50816 
L 139.088 304.50816 
L 140.383467 308.58912 
L 141.678933 304.50816 
L 142.9744 308.90304 
L 145.565333 308.90304 
L 146.8608 304.50816 
L 148.156267 308.2752 
L 149.451733 304.50816 
L 150.7472 304.50816 
L 152.042667 308.58912 
L 153.338133 304.50816 
L 154.6336 304.50816 
L 155.929067 308.58912 
L 157.224533 306.7056 
L 158.52 304.50816 
L 159.815467 308.58912 
L 161.110933 308.90304 
L 162.4064 304.82208 
L 164.997333 304.82208 
L 166.2928 308.90304 
L 167.588267 308.58912 
L 168.883733 308.58912 
L 170.1792 304.82208 
L 171.474667 304.50816 
L 174.0656 304.50816 
L 175.361067 308.90304 
L 176.656533 308.58912 
L 177.952 308.58912 
L 179.247467 304.50816 
L 180.542933 304.82208 
L 181.8384 304.50816 
L 183.133867 308.58912 
L 184.429333 308.58912 
L 185.7248 304.82208 
L 187.020267 304.50816 
L 188.315733 308.58912 
L 189.6112 304.50816 
L 190.906667 308.58912 
L 192.202133 304.50816 
L 193.4976 304.50816 
L 194.793067 308.90304 
L 196.088533 308.58912 
L 197.384 304.50816 
L 198.679467 308.58912 
L 199.974933 304.82208 
L 201.2704 308.58912 
L 202.565867 304.50816 
L 203.861333 304.19424 
L 205.1568 304.82208 
L 206.452267 308.58912 
L 207.747733 308.58912 
L 209.0432 321.45984 
L 210.338667 304.50816 
L 211.634133 304.50816 
L 212.9296 304.82208 
L 215.520533 304.82208 
L 216.816 304.19424 
L 218.111467 308.58912 
L 219.406933 304.50816 
L 220.7024 308.58912 
L 221.997867 304.82208 
L 223.293333 308.58912 
L 224.5888 304.50816 
L 225.884267 304.82208 
L 227.179733 304.82208 
L 228.4752 304.50816 
L 229.770667 308.58912 
L 231.066133 304.19424 
L 232.3616 304.50816 
L 233.657067 308.2752 
L 234.952533 304.50816 
L 237.543467 304.50816 
L 238.838933 307.64736 
L 240.1344 304.50816 
L 241.429867 305.76384 
L 242.725333 308.58912 
L 244.0208 304.19424 
L 245.316267 304.50816 
L 246.611733 308.58912 
L 247.9072 304.82208 
L 249.202667 304.82208 
L 250.498133 304.50816 
L 251.7936 308.90304 
L 253.089067 308.58912 
L 254.384533 308.58912 
L 255.68 304.82208 
L 256.975467 308.58912 
L 258.270933 308.90304 
L 259.5664 304.50816 
L 263.4528 304.50816 
L 264.748267 306.7056 
L 266.043733 304.50816 
L 267.3392 304.50816 
L 268.634667 308.90304 
L 269.930133 308.2752 
L 271.2256 308.58912 
L 272.521067 304.50816 
L 273.816533 308.58912 
L 275.112 304.19424 
L 276.407467 304.50816 
L 278.9984 304.50816 
L 280.293867 308.58912 
L 282.8848 308.58912 
L 284.180267 308.90304 
L 285.475733 308.58912 
L 286.7712 304.50816 
L 288.066667 308.58912 
L 289.362133 304.50816 
L 290.6576 308.58912 
L 291.953067 304.50816 
L 294.544 304.50816 
L 295.839467 308.58912 
L 297.134933 304.50816 
L 298.4304 304.50816 
L 299.725867 308.90304 
L 301.021333 308.2752 
L 303.612267 308.90304 
L 304.907733 308.58912 
L 306.2032 304.82208 
L 307.498667 304.82208 
L 308.794133 304.50816 
L 310.0896 304.50816 
L 311.385067 308.58912 
L 312.680533 304.82208 
L 313.976 320.51808 
L 315.271467 308.90304 
L 316.566933 304.50816 
L 317.8624 305.76384 
L 319.157867 304.50816 
L 320.453333 308.58912 
L 321.7488 308.90304 
L 323.044267 304.50816 
L 324.339733 304.82208 
L 325.6352 308.58912 
L 326.930667 304.50816 
L 328.226133 308.58912 
L 329.5216 304.50816 
L 333.408 304.50816 
L 334.703467 308.58912 
L 335.998933 308.58912 
L 337.2944 304.50816 
L 338.589867 308.58912 
L 339.885333 304.50816 
L 341.1808 304.50816 
L 342.476267 308.90304 
L 343.771733 312.67008 
L 345.0672 304.50816 
L 346.362667 308.90304 
L 347.658133 304.50816 
L 348.9536 304.50816 
L 350.249067 316.43712 
L 351.544533 308.90304 
L 352.84 308.58912 
L 354.135467 304.50816 
L 355.430933 308.90304 
L 356.7264 308.90304 
L 358.021867 304.50816 
L 359.317333 304.50816 
L 360.6128 308.58912 
L 361.908267 304.82208 
L 363.203733 308.58912 
L 364.4992 304.50816 
L 367.090133 304.50816 
L 368.3856 308.58912 
L 369.681067 304.50816 
L 370.976533 308.90304 
L 372.272 308.90304 
L 373.567467 304.50816 
L 374.862933 304.82208 
L 376.1584 304.50816 
L 377.453867 308.90304 
L 378.749333 304.82208 
L 380.0448 304.50816 
L 382.635733 304.50816 
L 383.9312 308.90304 
L 386.522133 308.90304 
L 387.8176 304.50816 
L 390.408533 304.50816 
L 391.704 304.19424 
L 392.999467 304.82208 
L 394.294933 304.82208 
L 395.5904 308.2752 
L 396.885867 304.50816 
L 398.181333 304.50816 
L 399.4768 308.90304 
L 400.772267 304.50816 
L 402.067733 304.50816 
L 403.3632 308.90304 
L 404.658667 304.50816 
L 405.954133 304.50816 
L 407.2496 308.90304 
L 408.545067 304.50816 
L 409.840533 304.82208 
L 411.136 304.50816 
L 412.431467 308.58912 
L 413.726933 308.90304 
L 415.0224 304.82208 
L 416.317867 304.50816 
L 417.613333 308.58912 
L 418.9088 304.50816 
L 420.204267 304.50816 
L 421.499733 304.82208 
L 422.7952 304.19424 
L 424.090667 308.58912 
L 425.386133 304.50816 
L 426.6816 308.90304 
L 427.977067 308.58912 
L 429.272533 304.50816 
L 430.568 304.50816 
L 431.863467 308.58912 
L 433.158933 308.58912 
L 434.4544 304.50816 
L 435.749867 304.50816 
L 437.045333 308.58912 
L 438.3408 308.58912 
L 439.636267 304.50816 
L 440.931733 308.90304 
L 442.2272 304.50816 
L 443.522667 304.82208 
L 444.818133 308.58912 
L 446.1136 308.2752 
L 447.409067 308.58912 
L 448.704533 304.82208 
L 448.704533 304.82208 
" clip-path="url(#pefa63cb500)" style="fill: none; stroke: #1f77b4; stroke-width: 1.5; stroke-linecap: square"/>
   </g>
   <g id="line2d_14">
    <path d="M 61.36 278.76672 
L 62.655467 281.90592 
L 63.950933 299.79936 
L 65.2464 299.17152 
L 66.541867 301.05504 
L 67.837333 306.39168 
L 69.1328 300.11328 
L 70.428267 292.26528 
L 71.723733 301.36896 
L 73.0192 302.31072 
L 74.314667 298.22976 
L 75.610133 302.62464 
L 76.9056 300.74112 
L 78.201067 304.50816 
L 79.496533 276.25536 
L 80.792 297.91584 
L 82.087467 297.288 
L 83.382933 301.36896 
L 84.6784 300.4272 
L 85.973867 284.7312 
L 87.269333 296.97408 
L 88.5648 303.5664 
L 89.860267 287.55648 
L 91.155733 304.50816 
L 92.4512 280.33632 
L 93.746667 301.9968 
L 95.042133 303.25248 
L 96.3376 299.17152 
L 97.633067 300.74112 
L 98.928533 300.74112 
L 100.224 278.76672 
L 101.519467 298.8576 
L 102.814933 297.91584 
L 104.1104 301.9968 
L 105.405867 301.36896 
L 106.701333 293.20704 
L 107.9968 300.74112 
L 109.292267 296.97408 
L 110.587733 288.18432 
L 111.8832 302.31072 
L 113.178667 294.1488 
L 114.474133 280.0224 
L 115.7696 301.36896 
L 117.065067 304.82208 
L 118.360533 305.136 
L 119.656 298.8576 
L 120.951467 296.34624 
L 122.246933 296.03232 
L 123.5424 297.91584 
L 126.133333 301.05504 
L 127.4288 302.31072 
L 128.724267 278.13888 
L 130.019733 300.74112 
L 131.3152 292.26528 
L 132.610667 305.136 
L 133.906133 282.21984 
L 135.2016 302.93856 
L 136.497067 294.46272 
L 137.792533 298.54368 
L 139.088 300.74112 
L 140.383467 291.95136 
L 141.678933 302.62464 
L 142.9744 302.93856 
L 145.565333 299.17152 
L 146.8608 288.18432 
L 148.156267 302.93856 
L 149.451733 300.74112 
L 152.042667 285.35904 
L 153.338133 298.22976 
L 154.6336 296.34624 
L 155.929067 299.48544 
L 157.224533 308.2752 
L 158.52 298.8576 
L 159.815467 302.31072 
L 161.110933 284.10336 
L 162.4064 294.46272 
L 163.701867 296.97408 
L 164.997333 301.68288 
L 166.2928 292.89312 
L 167.588267 299.79936 
L 168.883733 297.60192 
L 170.1792 299.79936 
L 171.474667 290.69568 
L 172.770133 296.03232 
L 174.0656 299.17152 
L 175.361067 293.52096 
L 176.656533 291.0096 
L 177.952 296.34624 
L 179.247467 305.136 
L 180.542933 296.66016 
L 181.8384 301.9968 
L 183.133867 308.58912 
L 184.429333 295.7184 
L 185.7248 296.97408 
L 187.020267 297.91584 
L 188.315733 304.50816 
L 189.6112 296.97408 
L 190.906667 305.44992 
L 192.202133 298.8576 
L 193.4976 302.31072 
L 194.793067 297.91584 
L 196.088533 276.8832 
L 197.384 299.17152 
L 199.974933 299.17152 
L 201.2704 295.40448 
L 202.565867 298.8576 
L 203.861333 296.97408 
L 205.1568 301.05504 
L 206.452267 302.62464 
L 207.747733 297.91584 
L 209.0432 298.8576 
L 210.338667 297.60192 
L 211.634133 296.03232 
L 212.9296 295.09056 
L 214.225067 300.4272 
L 215.520533 297.288 
L 216.816 296.66016 
L 218.111467 301.68288 
L 219.406933 300.11328 
L 220.7024 282.53376 
L 221.997867 302.62464 
L 223.293333 303.25248 
L 224.5888 304.50816 
L 225.884267 302.93856 
L 227.179733 301.68288 
L 228.4752 301.9968 
L 229.770667 301.68288 
L 231.066133 288.18432 
L 232.3616 299.17152 
L 233.657067 297.91584 
L 234.952533 282.84768 
L 236.248 307.01952 
L 237.543467 283.47552 
L 238.838933 297.288 
L 240.1344 295.7184 
L 241.429867 295.40448 
L 242.725333 300.74112 
L 244.0208 300.11328 
L 245.316267 301.9968 
L 246.611733 301.05504 
L 247.9072 291.0096 
L 249.202667 306.07776 
L 250.498133 300.11328 
L 251.7936 301.36896 
L 253.089067 280.33632 
L 254.384533 298.8576 
L 255.68 302.62464 
L 256.975467 302.62464 
L 258.270933 294.46272 
L 259.5664 302.62464 
L 260.861867 307.64736 
L 262.157333 277.82496 
L 263.4528 300.11328 
L 264.748267 294.77664 
L 267.3392 301.9968 
L 268.634667 295.7184 
L 269.930133 296.03232 
L 271.2256 302.62464 
L 272.521067 276.25536 
L 273.816533 299.17152 
L 275.112 302.62464 
L 276.407467 303.25248 
L 277.702933 301.36896 
L 278.9984 299.79936 
L 280.293867 282.84768 
L 281.589333 285.35904 
L 282.8848 296.66016 
L 284.180267 300.4272 
L 285.475733 288.81216 
L 286.7712 301.05504 
L 288.066667 299.48544 
L 289.362133 296.34624 
L 290.6576 303.25248 
L 291.953067 304.50816 
L 293.248533 300.4272 
L 294.544 301.36896 
L 295.839467 301.05504 
L 297.134933 299.17152 
L 298.4304 274.68576 
L 299.725867 298.22976 
L 301.021333 296.66016 
L 302.3168 306.07776 
L 303.612267 296.03232 
L 304.907733 301.05504 
L 306.2032 298.22976 
L 307.498667 301.36896 
L 308.794133 299.79936 
L 310.0896 297.91584 
L 311.385067 278.4528 
L 312.680533 297.91584 
L 313.976 296.97408 
L 315.271467 301.05504 
L 316.566933 273.43008 
L 317.8624 306.39168 
L 319.157867 297.91584 
L 320.453333 285.67296 
L 321.7488 300.74112 
L 323.044267 304.19424 
L 324.339733 298.22976 
L 325.6352 298.22976 
L 326.930667 294.46272 
L 328.226133 296.03232 
L 329.5216 301.68288 
L 330.817067 302.31072 
L 332.112533 301.68288 
L 333.408 303.88032 
L 334.703467 289.12608 
L 335.998933 300.11328 
L 337.2944 277.82496 
L 338.589867 304.19424 
L 339.885333 272.80224 
L 341.1808 296.66016 
L 342.476267 305.44992 
L 343.771733 286.61472 
L 345.0672 293.83488 
L 346.362667 297.60192 
L 347.658133 292.26528 
L 348.9536 299.48544 
L 350.249067 303.5664 
L 351.544533 295.7184 
L 352.84 296.34624 
L 354.135467 299.17152 
L 355.430933 300.74112 
L 356.7264 300.11328 
L 358.021867 298.22976 
L 359.317333 290.38176 
L 360.6128 297.91584 
L 361.908267 283.78944 
L 363.203733 304.50816 
L 364.4992 303.5664 
L 365.794667 303.25248 
L 367.090133 296.97408 
L 368.3856 300.74112 
L 369.681067 301.05504 
L 370.976533 305.44992 
L 372.272 298.22976 
L 373.567467 293.83488 
L 374.862933 281.90592 
L 376.1584 305.76384 
L 377.453867 275.94144 
L 378.749333 274.68576 
L 380.0448 301.9968 
L 381.340267 281.592 
L 382.635733 283.1616 
L 383.9312 298.54368 
L 385.226667 300.74112 
L 386.522133 297.91584 
L 387.8176 278.76672 
L 389.113067 295.40448 
L 390.408533 294.77664 
L 391.704 298.22976 
L 392.999467 303.5664 
L 394.294933 297.60192 
L 395.5904 299.79936 
L 396.885867 293.83488 
L 398.181333 301.68288 
L 399.4768 286.3008 
L 400.772267 295.7184 
L 402.067733 297.60192 
L 403.3632 320.51808 
L 404.658667 287.8704 
L 405.954133 300.4272 
L 407.2496 306.7056 
L 408.545067 301.68288 
L 409.840533 295.7184 
L 411.136 306.39168 
L 412.431467 296.97408 
L 413.726933 301.36896 
L 415.0224 295.09056 
L 416.317867 300.4272 
L 417.613333 300.11328 
L 418.9088 301.68288 
L 420.204267 298.8576 
L 421.499733 299.48544 
L 422.7952 294.77664 
L 425.386133 299.79936 
L 426.6816 280.65024 
L 427.977067 278.4528 
L 429.272533 301.05504 
L 430.568 304.82208 
L 431.863467 298.22976 
L 433.158933 298.22976 
L 434.4544 296.97408 
L 435.749867 284.7312 
L 437.045333 297.60192 
L 438.3408 298.8576 
L 439.636267 297.60192 
L 440.931733 289.12608 
L 442.2272 293.52096 
L 443.522667 299.48544 
L 444.818133 296.97408 
L 446.1136 304.19424 
L 447.409067 287.55648 
L 448.704533 299.79936 
L 448.704533 299.79936 
" clip-path="url(#pefa63cb500)" style="fill: none; stroke: #ff7f0e; stroke-width: 1.5; stroke-linecap: square"/>
   </g>
   <g id="patch_3">
    <path d="M 61.36 328.68 
L 61.36 14.76 
" style="fill: none; stroke: #000000; stroke-width: 0.8; stroke-linejoin: miter; stroke-linecap: square"/>
   </g>
   <g id="patch_4">
    <path d="M 61.36 328.68 
L 450 328.68 
" style="fill: none; stroke: #000000; stroke-width: 0.8; stroke-linejoin: miter; stroke-linecap: square"/>
   </g>
   <g id="legend_1">
    <g id="patch_5">
     <path d="M 365.575 52.11625 
L 443 52.11625 
Q 445 52.11625 445 50.11625 
L 445 21.76 
Q 445 19.76 443 19.76 
L 365.575 19.76 
Q 363.575 19.76 363.575 21.76 
L 363.575 50.11625 
Q 363.575 52.11625 365.575 52.11625 
z
" style="fill: #ffffff; opacity: 0.8; stroke: #cccccc; stroke-linejoin: miter"/>
    </g>
    <g id="line2d_15">
     <path d="M 367.575 27.858437 
L 377.575 27.858437 
L 387.575 27.858437 
" style="fill: none; stroke: #1f77b4; stroke-width: 1.5; stroke-linecap: square"/>
    </g>
    <g id="text_7">
     <!-- 1 vlákno -->
     <g transform="translate(395.575 31.358437)scale(0.1 -0.1)">
      <defs>
       <path id="DejaVuSans-76" d="M 191 3500 
L 800 3500 
L 1894 563 
L 2988 3500 
L 3597 3500 
L 2284 0 
L 1503 0 
L 191 3500 
z
" transform="scale(0.015625)"/>
       <path id="DejaVuSans-6c" d="M 603 4863 
L 1178 4863 
L 1178 0 
L 603 0 
L 603 4863 
z
" transform="scale(0.015625)"/>
       <path id="DejaVuSans-e1" d="M 2194 1759 
Q 1497 1759 1228 1600 
Q 959 1441 959 1056 
Q 959 750 1161 570 
Q 1363 391 1709 391 
Q 2188 391 2477 730 
Q 2766 1069 2766 1631 
L 2766 1759 
L 2194 1759 
z
M 3341 1997 
L 3341 0 
L 2766 0 
L 2766 531 
Q 2569 213 2275 61 
Q 1981 -91 1556 -91 
Q 1019 -91 701 211 
Q 384 513 384 1019 
Q 384 1609 779 1909 
Q 1175 2209 1959 2209 
L 2766 2209 
L 2766 2266 
Q 2766 2663 2505 2880 
Q 2244 3097 1772 3097 
Q 1472 3097 1187 3025 
Q 903 2953 641 2809 
L 641 3341 
Q 956 3463 1253 3523 
Q 1550 3584 1831 3584 
Q 2591 3584 2966 3190 
Q 3341 2797 3341 1997 
z
M 2291 5119 
L 2913 5119 
L 1894 3944 
L 1416 3944 
L 2291 5119 
z
" transform="scale(0.015625)"/>
       <path id="DejaVuSans-6b" d="M 581 4863 
L 1159 4863 
L 1159 1991 
L 2875 3500 
L 3609 3500 
L 1753 1863 
L 3688 0 
L 2938 0 
L 1159 1709 
L 1159 0 
L 581 0 
L 581 4863 
z
" transform="scale(0.015625)"/>
       <path id="DejaVuSans-6e" d="M 3513 2113 
L 3513 0 
L 2938 0 
L 2938 2094 
Q 2938 2591 2744 2837 
Q 2550 3084 2163 3084 
Q 1697 3084 1428 2787 
Q 1159 2491 1159 1978 
L 1159 0 
L 581 0 
L 581 3500 
L 1159 3500 
L 1159 2956 
Q 1366 3272 1645 3428 
Q 1925 3584 2291 3584 
Q 2894 3584 3203 3211 
Q 3513 2838 3513 2113 
z
" transform="scale(0.015625)"/>
       <path id="DejaVuSans-6f" d="M 1959 3097 
Q 1497 3097 1228 2736 
Q 959 2375 959 1747 
Q 959 1119 1226 758 
Q 1494 397 1959 397 
Q 2419 397 2687 759 
Q 2956 1122 2956 1747 
Q 2956 2369 2687 2733 
Q 2419 3097 1959 3097 
z
M 1959 3584 
Q 2709 3584 3137 3096 
Q 3566 2609 3566 1747 
Q 3566 888 3137 398 
Q 2709 -91 1959 -91 
Q 1206 -91 779 398 
Q 353 888 353 1747 
Q 353 2609 779 3096 
Q 1206 3584 1959 3584 
z
" transform="scale(0.015625)"/>
      </defs>
      <use xlink:href="#DejaVuSans-31"/>
      <use xlink:href="#DejaVuSans-20" x="63.623047"/>
      <use xlink:href="#DejaVuSans-76" x="95.410156"/>
      <use xlink:href="#DejaVuSans-6c" x="154.589844"/>
      <use xlink:href="#DejaVuSans-e1" x="182.373047"/>
      <use xlink:href="#DejaVuSans-6b" x="243.652344"/>
      <use xlink:href="#DejaVuSans-6e" x="301.5625"/>
      <use xlink:href="#DejaVuSans-6f" x="364.941406"/>
     </g>
    </g>
    <g id="line2d_16">
     <path d="M 367.575 42.536563 
L 377.575 42.536563 
L 387.575 42.536563 
" style="fill: none; stroke: #ff7f0e; stroke-width: 1.5; stroke-linecap: square"/>
    </g>
    <g id="text_8">
     <!-- 5 vlákien -->
     <g transform="translate(395.575 46.036563)scale(0.1 -0.1)">
      <defs>
       <path id="DejaVuSans-35" d="M 691 4666 
L 3169 4666 
L 3169 4134 
L 1269 4134 
L 1269 2991 
Q 1406 3038 1543 3061 
Q 1681 3084 1819 3084 
Q 2600 3084 3056 2656 
Q 3513 2228 3513 1497 
Q 3513 744 3044 326 
Q 2575 -91 1722 -91 
Q 1428 -91 1123 -41 
Q 819 9 494 109 
L 494 744 
Q 775 591 1075 516 
Q 1375 441 1709 441 
Q 2250 441 2565 725 
Q 2881 1009 2881 1497 
Q 2881 1984 2565 2268 
Q 2250 2553 1709 2553 
Q 1456 2553 1204 2497 
Q 953 2441 691 2322 
L 691 4666 
z
" transform="scale(0.015625)"/>
       <path id="DejaVuSans-69" d="M 603 3500 
L 1178 3500 
L 1178 0 
L 603 0 
L 603 3500 
z
M 603 4863 
L 1178 4863 
L 1178 4134 
L 603 4134 
L 603 4863 
z
" transform="scale(0.015625)"/>
       <path id="DejaVuSans-65" d="M 3597 1894 
L 3597 1613 
L 953 1613 
Q 991 1019 1311 708 
Q 1631 397 2203 397 
Q 2534 397 2845 478 
Q 3156 559 3463 722 
L 3463 178 
Q 3153 47 2828 -22 
Q 2503 -91 2169 -91 
Q 1331 -91 842 396 
Q 353 884 353 1716 
Q 353 2575 817 3079 
Q 1281 3584 2069 3584 
Q 2775 3584 3186 3129 
Q 3597 2675 3597 1894 
z
M 3022 2063 
Q 3016 2534 2758 2815 
Q 2500 3097 2075 3097 
Q 1594 3097 1305 2825 
Q 1016 2553 972 2059 
L 3022 2063 
z
" transform="scale(0.015625)"/>
      </defs>
      <use xlink:href="#DejaVuSans-35"/>
      <use xlink:href="#DejaVuSans-20" x="63.623047"/>
      <use xlink:href="#DejaVuSans-76" x="95.410156"/>
      <use xlink:href="#DejaVuSans-6c" x="154.589844"/>
      <use xlink:href="#DejaVuSans-e1" x="182.373047"/>
      <use xlink:href="#DejaVuSans-6b" x="243.652344"/>
      <use xlink:href="#DejaVuSans-69" x="301.5625"/>
      <use xlink:href="#DejaVuSans-65" x="329.345703"/>
      <use xlink:href="#DejaVuSans-6e" x="390.869141"/>
     </g>
    </g>
   </g>
  </g>
 </g>
 <defs>
  <clipPath id="pefa63cb500">
   <rect x="61.36" y="14.76" width="388.64" height="313.92"/>
  </clipPath>
 </defs>
</svg>
