<?xml version="1.0" encoding="utf-8" standalone="no"?>
<!DOCTYPE svg PUBLIC "-//W3C//DTD SVG 1.1//EN"
  "http://www.w3.org/Graphics/SVG/1.1/DTD/svg11.dtd">
<svg xmlns:xlink="http://www.w3.org/1999/xlink" width="460.8pt" height="345.6pt" viewBox="0 0 460.8 345.6" xmlns="http://www.w3.org/2000/svg" version="1.1">
 <metadata>
  <rdf:RDF xmlns:dc="http://purl.org/dc/elements/1.1/" xmlns:cc="http://creativecommons.org/ns#" xmlns:rdf="http://www.w3.org/1999/02/22-rdf-syntax-ns#">
   <cc:Work>
    <dc:type rdf:resource="http://purl.org/dc/dcmitype/StillImage"/>
    <dc:date>2022-11-20T16:59:21.805993</dc:date>
    <dc:format>image/svg+xml</dc:format>
    <dc:creator>
     <cc:Agent>
      <dc:title>Matplotlib v3.5.3, https://matplotlib.org/</dc:title>
     </cc:Agent>
    </dc:creator>
   </cc:Work>
  </rdf:RDF>
 </metadata>
 <defs>
  <style type="text/css">*{stroke-linejoin: round; stroke-linecap: butt}</style>
 </defs>
 <g id="figure_1">
  <g id="patch_1">
   <path d="M 0 345.6 
L 460.8 345.6 
L 460.8 0 
L 0 0 
z
" style="fill: #ffffff"/>
  </g>
  <g id="axes_1">
   <g id="patch_2">
    <path d="M 61.36 328.68 
L 450 328.68 
L 450 10.8 
L 61.36 10.8 
z
" style="fill: #ffffff"/>
   </g>
   <g id="matplotlib.axis_1"/>
   <g id="matplotlib.axis_2">
    <g id="ytick_1">
     <g id="line2d_1">
      <path d="M 61.36 328.68 
L 450 328.68 
" clip-path="url(#p5774a7a8a8)" style="fill: none; stroke-dasharray: 0.8,1.32; stroke-dashoffset: 0; stroke: #d3d3d3; stroke-width: 0.8"/>
     </g>
     <g id="line2d_2">
      <defs>
       <path id="m9d52a61c63" d="M 0 0 
L -3.5 0 
" style="stroke: #000000; stroke-width: 0.8"/>
      </defs>
      <g>
       <use xlink:href="#m9d52a61c63" x="61.36" y="328.68" style="stroke: #000000; stroke-width: 0.8"/>
      </g>
     </g>
     <g id="text_1">
      <!-- 0 ms -->
      <g transform="translate(29.869375 332.479219)scale(0.1 -0.1)">
       <defs>
        <path id="DejaVuSans-30" d="M 2034 4250 
Q 1547 4250 1301 3770 
Q 1056 3291 1056 2328 
Q 1056 1369 1301 889 
Q 1547 409 2034 409 
Q 2525 409 2770 889 
Q 3016 1369 3016 2328 
Q 3016 3291 2770 3770 
Q 2525 4250 2034 4250 
z
M 2034 4750 
Q 2819 4750 3233 4129 
Q 3647 3509 3647 2328 
Q 3647 1150 3233 529 
Q 2819 -91 2034 -91 
Q 1250 -91 836 529 
Q 422 1150 422 2328 
Q 422 3509 836 4129 
Q 1250 4750 2034 4750 
z
" transform="scale(0.015625)"/>
        <path id="DejaVuSans-20" transform="scale(0.015625)"/>
        <path id="DejaVuSans-6d" d="M 3328 2828 
Q 3544 3216 3844 3400 
Q 4144 3584 4550 3584 
Q 5097 3584 5394 3201 
Q 5691 2819 5691 2113 
L 5691 0 
L 5113 0 
L 5113 2094 
Q 5113 2597 4934 2840 
Q 4756 3084 4391 3084 
Q 3944 3084 3684 2787 
Q 3425 2491 3425 1978 
L 3425 0 
L 2847 0 
L 2847 2094 
Q 2847 2600 2669 2842 
Q 2491 3084 2119 3084 
Q 1678 3084 1418 2786 
Q 1159 2488 1159 1978 
L 1159 0 
L 581 0 
L 581 3500 
L 1159 3500 
L 1159 2956 
Q 1356 3278 1631 3431 
Q 1906 3584 2284 3584 
Q 2666 3584 2933 3390 
Q 3200 3197 3328 2828 
z
" transform="scale(0.015625)"/>
        <path id="DejaVuSans-73" d="M 2834 3397 
L 2834 2853 
Q 2591 2978 2328 3040 
Q 2066 3103 1784 3103 
Q 1356 3103 1142 2972 
Q 928 2841 928 2578 
Q 928 2378 1081 2264 
Q 1234 2150 1697 2047 
L 1894 2003 
Q 2506 1872 2764 1633 
Q 3022 1394 3022 966 
Q 3022 478 2636 193 
Q 2250 -91 1575 -91 
Q 1294 -91 989 -36 
Q 684 19 347 128 
L 347 722 
Q 666 556 975 473 
Q 1284 391 1588 391 
Q 1994 391 2212 530 
Q 2431 669 2431 922 
Q 2431 1156 2273 1281 
Q 2116 1406 1581 1522 
L 1381 1569 
Q 847 1681 609 1914 
Q 372 2147 372 2553 
Q 372 3047 722 3315 
Q 1072 3584 1716 3584 
Q 2034 3584 2315 3537 
Q 2597 3491 2834 3397 
z
" transform="scale(0.015625)"/>
       </defs>
       <use xlink:href="#DejaVuSans-30"/>
       <use xlink:href="#DejaVuSans-20" x="63.623047"/>
       <use xlink:href="#DejaVuSans-6d" x="95.410156"/>
       <use xlink:href="#DejaVuSans-73" x="192.822266"/>
      </g>
     </g>
    </g>
    <g id="ytick_2">
     <g id="line2d_3">
      <path d="M 61.36 261.503331 
L 450 261.503331 
" clip-path="url(#p5774a7a8a8)" style="fill: none; stroke-dasharray: 0.8,1.32; stroke-dashoffset: 0; stroke: #d3d3d3; stroke-width: 0.8"/>
     </g>
     <g id="line2d_4">
      <g>
       <use xlink:href="#m9d52a61c63" x="61.36" y="261.503331" style="stroke: #000000; stroke-width: 0.8"/>
      </g>
     </g>
     <g id="text_2">
      <!-- 500 ms -->
      <g transform="translate(17.144375 265.302549)scale(0.1 -0.1)">
       <defs>
        <path id="DejaVuSans-35" d="M 691 4666 
L 3169 4666 
L 3169 4134 
L 1269 4134 
L 1269 2991 
Q 1406 3038 1543 3061 
Q 1681 3084 1819 3084 
Q 2600 3084 3056 2656 
Q 3513 2228 3513 1497 
Q 3513 744 3044 326 
Q 2575 -91 1722 -91 
Q 1428 -91 1123 -41 
Q 819 9 494 109 
L 494 744 
Q 775 591 1075 516 
Q 1375 441 1709 441 
Q 2250 441 2565 725 
Q 2881 1009 2881 1497 
Q 2881 1984 2565 2268 
Q 2250 2553 1709 2553 
Q 1456 2553 1204 2497 
Q 953 2441 691 2322 
L 691 4666 
z
" transform="scale(0.015625)"/>
       </defs>
       <use xlink:href="#DejaVuSans-35"/>
       <use xlink:href="#DejaVuSans-30" x="63.623047"/>
       <use xlink:href="#DejaVuSans-30" x="127.246094"/>
       <use xlink:href="#DejaVuSans-20" x="190.869141"/>
       <use xlink:href="#DejaVuSans-6d" x="222.65625"/>
       <use xlink:href="#DejaVuSans-73" x="320.068359"/>
      </g>
     </g>
    </g>
    <g id="ytick_3">
     <g id="line2d_5">
      <path d="M 61.36 194.326661 
L 450 194.326661 
" clip-path="url(#p5774a7a8a8)" style="fill: none; stroke-dasharray: 0.8,1.32; stroke-dashoffset: 0; stroke: #d3d3d3; stroke-width: 0.8"/>
     </g>
     <g id="line2d_6">
      <g>
       <use xlink:href="#m9d52a61c63" x="61.36" y="194.326661" style="stroke: #000000; stroke-width: 0.8"/>
      </g>
     </g>
     <g id="text_3">
      <!-- 1000 ms -->
      <g transform="translate(10.781875 198.12588)scale(0.1 -0.1)">
       <defs>
        <path id="DejaVuSans-31" d="M 794 531 
L 1825 531 
L 1825 4091 
L 703 3866 
L 703 4441 
L 1819 4666 
L 2450 4666 
L 2450 531 
L 3481 531 
L 3481 0 
L 794 0 
L 794 531 
z
" transform="scale(0.015625)"/>
       </defs>
       <use xlink:href="#DejaVuSans-31"/>
       <use xlink:href="#DejaVuSans-30" x="63.623047"/>
       <use xlink:href="#DejaVuSans-30" x="127.246094"/>
       <use xlink:href="#DejaVuSans-30" x="190.869141"/>
       <use xlink:href="#DejaVuSans-20" x="254.492188"/>
       <use xlink:href="#DejaVuSans-6d" x="286.279297"/>
       <use xlink:href="#DejaVuSans-73" x="383.691406"/>
      </g>
     </g>
    </g>
    <g id="ytick_4">
     <g id="line2d_7">
      <path d="M 61.36 127.149992 
L 450 127.149992 
" clip-path="url(#p5774a7a8a8)" style="fill: none; stroke-dasharray: 0.8,1.32; stroke-dashoffset: 0; stroke: #d3d3d3; stroke-width: 0.8"/>
     </g>
     <g id="line2d_8">
      <g>
       <use xlink:href="#m9d52a61c63" x="61.36" y="127.149992" style="stroke: #000000; stroke-width: 0.8"/>
      </g>
     </g>
     <g id="text_4">
      <!-- 1500 ms -->
      <g transform="translate(10.781875 130.94921)scale(0.1 -0.1)">
       <use xlink:href="#DejaVuSans-31"/>
       <use xlink:href="#DejaVuSans-35" x="63.623047"/>
       <use xlink:href="#DejaVuSans-30" x="127.246094"/>
       <use xlink:href="#DejaVuSans-30" x="190.869141"/>
       <use xlink:href="#DejaVuSans-20" x="254.492188"/>
       <use xlink:href="#DejaVuSans-6d" x="286.279297"/>
       <use xlink:href="#DejaVuSans-73" x="383.691406"/>
      </g>
     </g>
    </g>
    <g id="ytick_5">
     <g id="line2d_9">
      <path d="M 61.36 59.973322 
L 450 59.973322 
" clip-path="url(#p5774a7a8a8)" style="fill: none; stroke-dasharray: 0.8,1.32; stroke-dashoffset: 0; stroke: #d3d3d3; stroke-width: 0.8"/>
     </g>
     <g id="line2d_10">
      <g>
       <use xlink:href="#m9d52a61c63" x="61.36" y="59.973322" style="stroke: #000000; stroke-width: 0.8"/>
      </g>
     </g>
     <g id="text_5">
      <!-- 2000 ms -->
      <g transform="translate(10.781875 63.772541)scale(0.1 -0.1)">
       <defs>
        <path id="DejaVuSans-32" d="M 1228 531 
L 3431 531 
L 3431 0 
L 469 0 
L 469 531 
Q 828 903 1448 1529 
Q 2069 2156 2228 2338 
Q 2531 2678 2651 2914 
Q 2772 3150 2772 3378 
Q 2772 3750 2511 3984 
Q 2250 4219 1831 4219 
Q 1534 4219 1204 4116 
Q 875 4013 500 3803 
L 500 4441 
Q 881 4594 1212 4672 
Q 1544 4750 1819 4750 
Q 2544 4750 2975 4387 
Q 3406 4025 3406 3419 
Q 3406 3131 3298 2873 
Q 3191 2616 2906 2266 
Q 2828 2175 2409 1742 
Q 1991 1309 1228 531 
z
" transform="scale(0.015625)"/>
       </defs>
       <use xlink:href="#DejaVuSans-32"/>
       <use xlink:href="#DejaVuSans-30" x="63.623047"/>
       <use xlink:href="#DejaVuSans-30" x="127.246094"/>
       <use xlink:href="#DejaVuSans-30" x="190.869141"/>
       <use xlink:href="#DejaVuSans-20" x="254.492188"/>
       <use xlink:href="#DejaVuSans-6d" x="286.279297"/>
       <use xlink:href="#DejaVuSans-73" x="383.691406"/>
      </g>
     </g>
    </g>
   </g>
   <g id="line2d_11">
    <path d="M 61.36 318.066086 
L 62.655467 318.066086 
L 63.950933 317.663026 
L 66.541867 318.20044 
L 67.837333 317.931733 
L 69.1328 318.066086 
L 70.428267 318.066086 
L 71.723733 318.20044 
L 73.0192 318.066086 
L 75.610133 318.066086 
L 76.9056 319.81268 
L 78.201067 318.066086 
L 85.973867 318.066086 
L 87.269333 317.931733 
L 88.5648 318.066086 
L 89.860267 318.066086 
L 91.155733 319.81268 
L 92.4512 317.79738 
L 93.746667 318.066086 
L 98.928533 318.066086 
L 100.224 319.81268 
L 101.519467 321.02186 
L 102.814933 317.931733 
L 104.1104 318.066086 
L 105.405867 324.380693 
L 106.701333 317.931733 
L 107.9968 316.99126 
L 109.292267 318.066086 
L 110.587733 317.79738 
L 111.8832 318.334793 
L 113.178667 317.931733 
L 114.474133 319.81268 
L 115.7696 318.469146 
L 117.065067 318.066086 
L 118.360533 318.066086 
L 119.656 317.931733 
L 122.246933 318.20044 
L 123.5424 318.066086 
L 124.837867 318.20044 
L 126.133333 319.00656 
L 127.4288 317.931733 
L 130.019733 318.20044 
L 131.3152 313.766779 
L 132.610667 317.931733 
L 135.2016 318.20044 
L 136.497067 318.066086 
L 137.792533 318.20044 
L 139.088 318.066086 
L 148.156267 318.066086 
L 149.451733 318.20044 
L 150.7472 318.066086 
L 153.338133 318.066086 
L 154.6336 317.79738 
L 155.929067 318.066086 
L 157.224533 318.066086 
L 158.52 319.81268 
L 159.815467 318.066086 
L 161.110933 318.20044 
L 162.4064 317.931733 
L 163.701867 318.066086 
L 164.997333 317.931733 
L 167.588267 318.20044 
L 168.883733 315.916433 
L 170.1792 318.066086 
L 171.474667 317.931733 
L 172.770133 318.066086 
L 176.656533 318.066086 
L 177.952 319.81268 
L 179.247467 318.066086 
L 181.8384 318.066086 
L 183.133867 319.81268 
L 184.429333 318.066086 
L 187.020267 318.066086 
L 188.315733 317.931733 
L 189.6112 318.20044 
L 190.906667 317.79738 
L 192.202133 317.79738 
L 193.4976 317.931733 
L 194.793067 315.916433 
L 196.088533 317.79738 
L 198.679467 318.066086 
L 199.974933 317.931733 
L 201.2704 318.066086 
L 203.861333 318.066086 
L 205.1568 317.528673 
L 206.452267 318.066086 
L 211.634133 318.066086 
L 212.9296 319.140913 
L 214.225067 318.066086 
L 218.111467 318.066086 
L 219.406933 317.931733 
L 223.293333 317.931733 
L 224.5888 318.066086 
L 227.179733 318.066086 
L 229.770667 317.79738 
L 231.066133 319.947033 
L 232.3616 318.20044 
L 233.657067 318.066086 
L 236.248 318.066086 
L 237.543467 317.931733 
L 238.838933 317.931733 
L 240.1344 318.066086 
L 241.429867 317.931733 
L 242.725333 318.066086 
L 244.0208 318.066086 
L 245.316267 317.931733 
L 246.611733 318.066086 
L 247.9072 317.931733 
L 249.202667 318.20044 
L 250.498133 318.20044 
L 251.7936 317.931733 
L 253.089067 318.066086 
L 254.384533 318.066086 
L 255.68 317.79738 
L 256.975467 318.066086 
L 263.4528 318.066086 
L 264.748267 319.81268 
L 266.043733 318.066086 
L 267.3392 318.066086 
L 268.634667 319.81268 
L 269.930133 317.931733 
L 271.2256 317.663026 
L 272.521067 318.066086 
L 273.816533 317.931733 
L 275.112 318.066086 
L 278.9984 318.066086 
L 280.293867 317.931733 
L 281.589333 318.066086 
L 285.475733 318.066086 
L 286.7712 318.20044 
L 288.066667 318.066086 
L 289.362133 320.081386 
L 290.6576 318.066086 
L 297.134933 318.066086 
L 298.4304 317.931733 
L 299.725867 318.20044 
L 301.021333 318.066086 
L 307.498667 318.066086 
L 308.794133 318.20044 
L 310.0896 317.931733 
L 311.385067 318.066086 
L 312.680533 319.678326 
L 313.976 317.931733 
L 315.271467 319.947033 
L 316.566933 318.066086 
L 321.7488 318.066086 
L 323.044267 317.931733 
L 324.339733 318.6035 
L 325.6352 317.931733 
L 326.930667 320.081386 
L 328.226133 317.931733 
L 329.5216 317.931733 
L 330.817067 318.066086 
L 339.885333 318.066086 
L 341.1808 318.20044 
L 342.476267 318.066086 
L 350.249067 318.066086 
L 351.544533 317.931733 
L 352.84 317.663026 
L 354.135467 320.081386 
L 355.430933 318.066086 
L 356.7264 317.663026 
L 358.021867 319.81268 
L 359.317333 318.066086 
L 363.203733 318.066086 
L 364.4992 324.783753 
L 365.794667 318.066086 
L 367.090133 317.931733 
L 368.3856 318.066086 
L 369.681067 318.066086 
L 370.976533 317.931733 
L 372.272 317.931733 
L 373.567467 318.066086 
L 374.862933 318.066086 
L 376.1584 319.81268 
L 377.453867 318.066086 
L 378.749333 320.081386 
L 380.0448 319.81268 
L 382.635733 318.066086 
L 383.9312 319.40962 
L 385.226667 319.678326 
L 386.522133 318.066086 
L 390.408533 318.066086 
L 391.704 318.20044 
L 392.999467 319.947033 
L 394.294933 317.663026 
L 395.5904 317.931733 
L 396.885867 319.81268 
L 398.181333 318.066086 
L 403.3632 318.066086 
L 404.658667 317.79738 
L 407.2496 318.066086 
L 409.840533 317.79738 
L 411.136 318.066086 
L 413.726933 318.066086 
L 415.0224 317.931733 
L 416.317867 318.066086 
L 422.7952 318.066086 
L 424.090667 317.79738 
L 425.386133 317.931733 
L 426.6816 319.81268 
L 427.977067 317.931733 
L 429.272533 318.066086 
L 431.863467 318.066086 
L 433.158933 317.931733 
L 434.4544 318.066086 
L 435.749867 318.066086 
L 437.045333 319.81268 
L 438.3408 318.066086 
L 439.636267 318.066086 
L 440.931733 317.931733 
L 442.2272 317.931733 
L 443.522667 318.066086 
L 447.409067 318.066086 
L 448.704533 317.931733 
L 448.704533 317.931733 
" clip-path="url(#p5774a7a8a8)" style="fill: none; stroke: #1f77b4; stroke-width: 1.5; stroke-linecap: square"/>
   </g>
   <g id="line2d_12">
    <path d="M 61.36 301.271919 
L 62.655467 302.078039 
L 63.950933 313.901133 
L 65.2464 229.392883 
L 66.541867 301.540626 
L 67.837333 283.134218 
L 69.1328 268.758411 
L 70.428267 297.644379 
L 71.723733 303.958986 
L 73.0192 299.659679 
L 74.314667 294.554252 
L 75.610133 226.168402 
L 76.9056 287.030465 
L 78.201067 126.746932 
L 79.496533 295.226019 
L 80.792 178.741674 
L 82.087467 132.658478 
L 83.382933 311.617126 
L 85.973867 293.210719 
L 87.269333 292.942012 
L 88.5648 294.688605 
L 89.860267 299.659679 
L 91.155733 309.870533 
L 92.4512 69.646762 
L 93.746667 280.178445 
L 95.042133 307.855232 
L 96.3376 299.525325 
L 97.633067 128.493525 
L 98.928533 287.702232 
L 100.224 296.166492 
L 101.519467 292.942012 
L 102.814933 316.856906 
L 104.1104 293.748132 
L 105.405867 298.853559 
L 106.701333 113.445951 
L 107.9968 302.884159 
L 109.292267 64.675689 
L 110.587733 302.481099 
L 111.8832 267.952291 
L 113.178667 292.538952 
L 114.474133 300.734505 
L 115.7696 214.345309 
L 117.065067 307.586526 
L 118.360533 210.449062 
L 119.656 213.807895 
L 120.951467 84.291276 
L 122.246933 231.139476 
L 123.5424 310.273593 
L 124.837867 306.780406 
L 126.133333 307.855232 
L 127.4288 10.8 
L 128.724267 293.613779 
L 130.019733 201.313035 
L 131.3152 284.074691 
L 132.610667 62.257329 
L 133.906133 295.360372 
L 135.2016 295.763432 
L 136.497067 292.673305 
L 137.792533 293.210719 
L 139.088 124.865985 
L 140.383467 297.913085 
L 141.678933 24.638394 
L 142.9744 123.119391 
L 144.269867 300.331445 
L 145.565333 166.381167 
L 146.8608 303.152866 
L 148.156267 242.022096 
L 149.451733 315.916433 
L 150.7472 311.482773 
L 152.042667 231.139476 
L 153.338133 310.139239 
L 154.6336 299.122265 
L 155.929067 296.300845 
L 157.224533 129.702705 
L 158.52 303.018512 
L 159.815467 311.348419 
L 161.110933 215.151429 
L 162.4064 305.168166 
L 163.701867 301.406272 
L 164.997333 95.173897 
L 166.2928 122.447625 
L 168.883733 95.576957 
L 170.1792 28.803347 
L 171.474667 243.231276 
L 172.770133 204.268808 
L 174.0656 300.734505 
L 175.361067 229.392883 
L 176.656533 226.034049 
L 177.952 190.699121 
L 179.247467 301.809332 
L 180.542933 297.375672 
L 181.8384 298.853559 
L 183.133867 295.091665 
L 184.429333 315.513373 
L 185.7248 302.346746 
L 187.020267 312.288893 
L 188.315733 62.257329 
L 189.6112 19.801674 
L 190.906667 122.313271 
L 192.202133 213.673542 
L 193.4976 293.076365 
L 194.793067 235.035723 
L 196.088533 305.168166 
L 197.384 309.467473 
L 198.679467 96.383077 
L 199.974933 143.406746 
L 201.2704 163.425393 
L 202.565867 301.674979 
L 203.861333 287.702232 
L 205.1568 304.630752 
L 206.452267 231.811243 
L 207.747733 308.661352 
L 209.0432 130.105765 
L 210.338667 303.824632 
L 211.634133 290.120592 
L 212.9296 73.946069 
L 214.225067 298.584852 
L 215.520533 282.462451 
L 216.816 64.272629 
L 218.111467 302.481099 
L 219.406933 287.030465 
L 220.7024 312.154539 
L 221.997867 305.974286 
L 223.293333 303.421572 
L 224.5888 166.649873 
L 225.884267 147.706052 
L 227.179733 259.353677 
L 228.4752 321.693626 
L 229.770667 292.001538 
L 231.066133 294.285545 
L 232.3616 314.841606 
L 233.657067 108.206171 
L 234.952533 249.142823 
L 236.248 292.270245 
L 237.543467 239.73809 
L 238.838933 275.073018 
L 240.1344 300.062739 
L 241.429867 295.360372 
L 242.725333 295.494725 
L 244.0208 300.197092 
L 245.316267 299.659679 
L 246.611733 278.700558 
L 247.9072 312.020186 
L 249.202667 296.166492 
L 250.498133 313.632426 
L 251.7936 158.319966 
L 253.089067 135.882959 
L 254.384533 305.302519 
L 255.68 262.578157 
L 256.975467 304.496399 
L 258.270933 301.540626 
L 259.5664 288.642705 
L 260.861867 280.178445 
L 262.157333 125.940811 
L 263.4528 134.539425 
L 264.748267 292.135892 
L 266.043733 297.644379 
L 267.3392 206.552815 
L 268.634667 302.212392 
L 269.930133 169.605647 
L 271.2256 318.20044 
L 272.521067 91.008943 
L 273.816533 176.457667 
L 275.112 319.140913 
L 276.407467 14.02448 
L 277.702933 314.572899 
L 278.9984 121.775858 
L 280.293867 300.465799 
L 281.589333 314.169839 
L 282.8848 35.655368 
L 284.180267 216.091902 
L 285.475733 247.127523 
L 286.7712 290.792358 
L 288.066667 300.331445 
L 289.362133 301.809332 
L 290.6576 69.646762 
L 291.953067 288.105292 
L 293.248533 310.273593 
L 294.544 283.134218 
L 295.839467 301.271919 
L 297.134933 261.10027 
L 298.4304 100.54803 
L 299.725867 130.643178 
L 301.021333 317.125613 
L 302.3168 129.030938 
L 303.612267 151.736653 
L 304.907733 69.512409 
L 306.2032 311.079713 
L 307.498667 96.383077 
L 308.794133 303.824632 
L 310.0896 306.780406 
L 311.385067 285.418225 
L 312.680533 283.940338 
L 313.976 185.056281 
L 315.271467 238.93197 
L 316.566933 62.794742 
L 317.8624 296.435199 
L 319.157867 317.79738 
L 320.453333 305.974286 
L 321.7488 314.841606 
L 323.044267 314.304193 
L 324.339733 278.969265 
L 325.6352 301.137566 
L 326.930667 286.627405 
L 328.226133 276.550904 
L 329.5216 318.872206 
L 330.817067 58.764142 
L 332.112533 312.826306 
L 333.408 288.105292 
L 334.703467 309.064413 
L 335.998933 65.213102 
L 337.2944 97.189197 
L 338.589867 136.017312 
L 339.885333 132.658478 
L 341.1808 300.062739 
L 342.476267 300.197092 
L 343.771733 302.749806 
L 345.0672 303.287219 
L 346.362667 268.489704 
L 347.658133 304.630752 
L 348.9536 319.40962 
L 350.249067 318.20044 
L 351.544533 303.555926 
L 352.84 72.602536 
L 354.135467 113.714658 
L 355.430933 36.595841 
L 356.7264 231.273829 
L 358.021867 297.913085 
L 359.317333 240.94727 
L 360.6128 310.004886 
L 361.908267 313.229366 
L 363.203733 180.891327 
L 364.4992 130.643178 
L 365.794667 126.881285 
L 367.090133 238.52891 
L 368.3856 302.212392 
L 369.681067 317.259966 
L 370.976533 253.710837 
L 372.272 288.508352 
L 373.567467 301.271919 
L 374.862933 300.600152 
L 376.1584 294.554252 
L 377.453867 301.137566 
L 378.749333 141.391445 
L 380.0448 321.82798 
L 381.340267 79.857616 
L 382.635733 317.125613 
L 383.9312 231.408183 
L 385.226667 295.897785 
L 386.522133 60.645089 
L 387.8176 298.047439 
L 389.113067 190.296061 
L 390.408533 298.450499 
L 391.704 298.047439 
L 392.999467 299.659679 
L 394.294933 101.488504 
L 395.5904 101.35415 
L 396.885867 98.12967 
L 398.181333 124.194218 
L 399.4768 311.617126 
L 400.772267 303.958986 
L 402.067733 314.707253 
L 403.3632 306.646052 
L 404.658667 299.659679 
L 405.954133 212.598715 
L 407.2496 289.583178 
L 408.545067 61.585562 
L 409.840533 15.368014 
L 411.136 278.297498 
L 412.431467 318.6035 
L 413.726933 58.629789 
L 415.0224 299.928385 
L 416.317867 237.588436 
L 417.613333 82.275976 
L 418.9088 139.376145 
L 420.204267 305.839932 
L 421.499733 120.432325 
L 422.7952 307.317819 
L 424.090667 203.059628 
L 425.386133 109.818411 
L 426.6816 195.132781 
L 427.977067 109.952764 
L 429.272533 302.078039 
L 430.568 287.030465 
L 431.863467 67.631462 
L 433.158933 309.333119 
L 434.4544 64.406982 
L 435.749867 263.249924 
L 437.045333 107.937464 
L 438.3408 309.064413 
L 439.636267 299.659679 
L 440.931733 296.032139 
L 442.2272 298.853559 
L 443.522667 296.972612 
L 444.818133 300.197092 
L 446.1136 305.302519 
L 447.409067 287.299172 
L 448.704533 106.593931 
L 448.704533 106.593931 
" clip-path="url(#p5774a7a8a8)" style="fill: none; stroke: #2ca02c; stroke-width: 1.5; stroke-linecap: square"/>
   </g>
   <g id="patch_3">
    <path d="M 61.36 328.68 
L 61.36 10.8 
" style="fill: none; stroke: #000000; stroke-width: 0.8; stroke-linejoin: miter; stroke-linecap: square"/>
   </g>
   <g id="patch_4">
    <path d="M 61.36 328.68 
L 450 328.68 
" style="fill: none; stroke: #000000; stroke-width: 0.8; stroke-linejoin: miter; stroke-linecap: square"/>
   </g>
   <g id="legend_1">
    <g id="patch_5">
     <path d="M 365.575 48.15625 
L 443 48.15625 
Q 445 48.15625 445 46.15625 
L 445 17.8 
Q 445 15.8 443 15.8 
L 365.575 15.8 
Q 363.575 15.8 363.575 17.8 
L 363.575 46.15625 
Q 363.575 48.15625 365.575 48.15625 
z
" style="fill: #ffffff; opacity: 0.8; stroke: #cccccc; stroke-linejoin: miter"/>
    </g>
    <g id="line2d_13">
     <path d="M 367.575 23.898438 
L 377.575 23.898438 
L 387.575 23.898438 
" style="fill: none; stroke: #1f77b4; stroke-width: 1.5; stroke-linecap: square"/>
    </g>
    <g id="text_6">
     <!-- 1 vlákno -->
     <g transform="translate(395.575 27.398438)scale(0.1 -0.1)">
      <defs>
       <path id="DejaVuSans-76" d="M 191 3500 
L 800 3500 
L 1894 563 
L 2988 3500 
L 3597 3500 
L 2284 0 
L 1503 0 
L 191 3500 
z
" transform="scale(0.015625)"/>
       <path id="DejaVuSans-6c" d="M 603 4863 
L 1178 4863 
L 1178 0 
L 603 0 
L 603 4863 
z
" transform="scale(0.015625)"/>
       <path id="DejaVuSans-e1" d="M 2194 1759 
Q 1497 1759 1228 1600 
Q 959 1441 959 1056 
Q 959 750 1161 570 
Q 1363 391 1709 391 
Q 2188 391 2477 730 
Q 2766 1069 2766 1631 
L 2766 1759 
L 2194 1759 
z
M 3341 1997 
L 3341 0 
L 2766 0 
L 2766 531 
Q 2569 213 2275 61 
Q 1981 -91 1556 -91 
Q 1019 -91 701 211 
Q 384 513 384 1019 
Q 384 1609 779 1909 
Q 1175 2209 1959 2209 
L 2766 2209 
L 2766 2266 
Q 2766 2663 2505 2880 
Q 2244 3097 1772 3097 
Q 1472 3097 1187 3025 
Q 903 2953 641 2809 
L 641 3341 
Q 956 3463 1253 3523 
Q 1550 3584 1831 3584 
Q 2591 3584 2966 3190 
Q 3341 2797 3341 1997 
z
M 2291 5119 
L 2913 5119 
L 1894 3944 
L 1416 3944 
L 2291 5119 
z
" transform="scale(0.015625)"/>
       <path id="DejaVuSans-6b" d="M 581 4863 
L 1159 4863 
L 1159 1991 
L 2875 3500 
L 3609 3500 
L 1753 1863 
L 3688 0 
L 2938 0 
L 1159 1709 
L 1159 0 
L 581 0 
L 581 4863 
z
" transform="scale(0.015625)"/>
       <path id="DejaVuSans-6e" d="M 3513 2113 
L 3513 0 
L 2938 0 
L 2938 2094 
Q 2938 2591 2744 2837 
Q 2550 3084 2163 3084 
Q 1697 3084 1428 2787 
Q 1159 2491 1159 1978 
L 1159 0 
L 581 0 
L 581 3500 
L 1159 3500 
L 1159 2956 
Q 1366 3272 1645 3428 
Q 1925 3584 2291 3584 
Q 2894 3584 3203 3211 
Q 3513 2838 3513 2113 
z
" transform="scale(0.015625)"/>
       <path id="DejaVuSans-6f" d="M 1959 3097 
Q 1497 3097 1228 2736 
Q 959 2375 959 1747 
Q 959 1119 1226 758 
Q 1494 397 1959 397 
Q 2419 397 2687 759 
Q 2956 1122 2956 1747 
Q 2956 2369 2687 2733 
Q 2419 3097 1959 3097 
z
M 1959 3584 
Q 2709 3584 3137 3096 
Q 3566 2609 3566 1747 
Q 3566 888 3137 398 
Q 2709 -91 1959 -91 
Q 1206 -91 779 398 
Q 353 888 353 1747 
Q 353 2609 779 3096 
Q 1206 3584 1959 3584 
z
" transform="scale(0.015625)"/>
      </defs>
      <use xlink:href="#DejaVuSans-31"/>
      <use xlink:href="#DejaVuSans-20" x="63.623047"/>
      <use xlink:href="#DejaVuSans-76" x="95.410156"/>
      <use xlink:href="#DejaVuSans-6c" x="154.589844"/>
      <use xlink:href="#DejaVuSans-e1" x="182.373047"/>
      <use xlink:href="#DejaVuSans-6b" x="243.652344"/>
      <use xlink:href="#DejaVuSans-6e" x="301.5625"/>
      <use xlink:href="#DejaVuSans-6f" x="364.941406"/>
     </g>
    </g>
    <g id="line2d_14">
     <path d="M 367.575 38.576563 
L 377.575 38.576563 
L 387.575 38.576563 
" style="fill: none; stroke: #2ca02c; stroke-width: 1.5; stroke-linecap: square"/>
    </g>
    <g id="text_7">
     <!-- 5 vlákien -->
     <g transform="translate(395.575 42.076563)scale(0.1 -0.1)">
      <defs>
       <path id="DejaVuSans-69" d="M 603 3500 
L 1178 3500 
L 1178 0 
L 603 0 
L 603 3500 
z
M 603 4863 
L 1178 4863 
L 1178 4134 
L 603 4134 
L 603 4863 
z
" transform="scale(0.015625)"/>
       <path id="DejaVuSans-65" d="M 3597 1894 
L 3597 1613 
L 953 1613 
Q 991 1019 1311 708 
Q 1631 397 2203 397 
Q 2534 397 2845 478 
Q 3156 559 3463 722 
L 3463 178 
Q 3153 47 2828 -22 
Q 2503 -91 2169 -91 
Q 1331 -91 842 396 
Q 353 884 353 1716 
Q 353 2575 817 3079 
Q 1281 3584 2069 3584 
Q 2775 3584 3186 3129 
Q 3597 2675 3597 1894 
z
M 3022 2063 
Q 3016 2534 2758 2815 
Q 2500 3097 2075 3097 
Q 1594 3097 1305 2825 
Q 1016 2553 972 2059 
L 3022 2063 
z
" transform="scale(0.015625)"/>
      </defs>
      <use xlink:href="#DejaVuSans-35"/>
      <use xlink:href="#DejaVuSans-20" x="63.623047"/>
      <use xlink:href="#DejaVuSans-76" x="95.410156"/>
      <use xlink:href="#DejaVuSans-6c" x="154.589844"/>
      <use xlink:href="#DejaVuSans-e1" x="182.373047"/>
      <use xlink:href="#DejaVuSans-6b" x="243.652344"/>
      <use xlink:href="#DejaVuSans-69" x="301.5625"/>
      <use xlink:href="#DejaVuSans-65" x="329.345703"/>
      <use xlink:href="#DejaVuSans-6e" x="390.869141"/>
     </g>
    </g>
   </g>
  </g>
 </g>
 <defs>
  <clipPath id="p5774a7a8a8">
   <rect x="61.36" y="10.8" width="388.64" height="317.88"/>
  </clipPath>
 </defs>
</svg>
